<?xml version="1.0" encoding="utf-8"?>
<!-- Generator: Adobe Illustrator 16.0.0, SVG Export Plug-In . SVG Version: 6.00 Build 0)  -->
<!DOCTYPE svg PUBLIC "-//W3C//DTD SVG 1.1//EN" "http://www.w3.org/Graphics/SVG/1.1/DTD/svg11.dtd">
<svg version="1.1" id="Layer_1" xmlns="http://www.w3.org/2000/svg" xmlns:xlink="http://www.w3.org/1999/xlink" x="0px" y="0px"
	 width="588.922px" height="266.291px" viewBox="0 0 588.922 266.291" enable-background="new 0 0 588.922 266.291"
	 xml:space="preserve">
<path fill-rule="evenodd" clip-rule="evenodd" fill="#FFFFFF" d="M0,266.292C0,177.529,0,88.764,0,0.001
	c196.307,0,392.614,0,588.923,0c0,88.763,0,177.528,0,266.291C392.614,266.292,196.307,266.292,0,266.292z"/>
<path fill-rule="evenodd" clip-rule="evenodd" fill="#032FBF" d="M35.727,194.246c0-40.335,0-80.564,0-120.886
	c33.668,0,67.278,0,100.987,0c0,40.297,0,80.556,0,120.886C103.046,194.246,69.47,194.246,35.727,194.246z M82.457,110.055
	c0-0.764,0-1.418,0-2.075c0-5.768,0.006-11.537-0.005-17.306c-0.003-1.626-0.323-1.924-1.962-1.951
	c-0.311-0.004-0.622,0-0.932-0.001c-4.304-0.028-8.606-0.059-12.911-0.085c-1.153-0.007-2.308-0.027-3.461,0.013
	c-0.94,0.03-1.268,0.366-1.337,1.291c-0.04,0.529-0.021,1.064-0.021,1.596c-0.001,17.441,0,34.881-0.005,52.322
	c0,0.647-0.058,1.296-0.092,1.978c-0.4,0.05-0.657,0.11-0.914,0.111c-1.642,0.01-3.285,0.009-4.927,0.009
	c-3.594,0.001-7.189-0.01-10.783,0.008c-1.477,0.006-1.805,0.351-1.824,1.801c-0.012,0.977-0.012,1.953,0,2.929
	c0.019,1.438,0.292,1.708,1.711,1.733c0.178,0.003,0.355,0,0.533,0c26.76,0,53.52,0,80.28,0c0.354,0,0.711,0.018,1.065-0.01
	c0.849-0.068,1.222-0.392,1.252-1.234c0.046-1.286,0.045-2.574,0.003-3.859c-0.03-0.909-0.401-1.252-1.32-1.344
	c-0.397-0.04-0.798-0.022-1.197-0.022c-4.394-0.001-8.788,0.002-13.181-0.005c-0.508-0.001-1.017-0.068-1.616-0.112
	c0-0.634,0-1.117,0-1.599c0-5.814,0-11.627,0-17.44c0-0.4,0.021-0.802-0.019-1.198c-0.074-0.733-0.443-1.128-1.16-1.236
	c-0.348-0.053-0.709-0.03-1.063-0.031c-3.461-0.001-6.923,0.002-10.384-0.005c-0.47,0-0.939-0.045-1.507-0.076
	c0-1.235,0-2.337,0-3.441c-0.001-3.017,0.01-6.036-0.008-9.053c-0.007-1.246-0.353-1.575-1.571-1.625
	c-0.31-0.013-0.621-0.003-0.932-0.003c-3.373,0-6.745,0.002-10.118-0.004C83.573,110.127,83.097,110.086,82.457,110.055z
	 M85.916,166.546c10.243,0,20.485,0,30.729,0c0.311,0,0.622,0.014,0.931-0.005c0.902-0.06,1.212-0.322,1.237-1.208
	c0.04-1.417,0.038-2.837,0.003-4.256c-0.022-0.906-0.394-1.245-1.313-1.324c-0.308-0.027-0.621-0.011-0.931-0.011
	c-20.397,0-40.794,0-61.19,0c-0.354,0-0.713-0.022-1.064,0.015c-0.823,0.084-1.22,0.434-1.247,1.262
	c-0.046,1.461-0.049,2.927,0.005,4.388c0.031,0.819,0.354,1.068,1.182,1.132c0.354,0.026,0.71,0.007,1.064,0.007
	C65.519,166.546,75.717,166.546,85.916,166.546z M85.96,179.065c8.208,0,16.416,0,24.623,0c0.355,0,0.71,0.007,1.065-0.002
	c1.31-0.037,1.608-0.335,1.652-1.686c0.02-0.576,0.008-1.153,0.006-1.73c-0.007-2.2-0.14-2.333-2.344-2.333
	c-16.681-0.001-33.363-0.001-50.044-0.001c-0.223,0-0.445-0.004-0.666,0.002c-1.25,0.035-1.611,0.352-1.66,1.554
	c-0.036,0.887-0.036,1.776,0.001,2.661c0.049,1.153,0.402,1.483,1.544,1.532c0.354,0.016,0.71,0.004,1.065,0.004
	C69.457,179.065,77.708,179.065,85.96,179.065z"/>
<g>
	<path fill-rule="evenodd" clip-rule="evenodd" d="M530.491,194.326c-8.241,0-16.215,0-24.348,0c0-32.478,0-64.893,0-97.461
		c-1.904-0.175-3.668-0.068-5.424-0.088c-1.731-0.018-3.463-0.003-5.192-0.003c-1.775,0-3.551,0-5.326,0c-1.728,0-3.456,0-5.33,0
		c-0.255-2.235,0.052-4.432-0.416-6.615c-0.137,0.307-0.299,0.606-0.407,0.923c-6.218,18.031-12.433,36.063-18.647,54.094
		c-0.65,1.887-1.348,3.76-1.933,5.667c-0.27,0.874-0.444,1.814-0.447,2.726c-0.027,12.959-0.02,25.917-0.02,38.876
		c0,0.571,0,1.143,0,1.683c-1.051,0.326-20.937,0.455-24.167,0.17c-0.019-0.527-0.057-1.082-0.057-1.636
		c-0.002-12.514-0.007-25.029,0.008-37.545c0.003-1.037-0.156-2.01-0.495-2.99c-5.28-15.257-10.542-30.521-15.813-45.782
		c-3.402-9.853-6.81-19.702-10.216-29.554c-0.126-0.361-0.279-0.712-0.414-1.054c-0.123,0.031-0.17,0.03-0.198,0.052
		c-0.033,0.026-0.055,0.07-0.072,0.11c-0.016,0.041-0.023,0.086-0.028,0.129c-0.011,0.088-0.017,0.176-0.023,0.265
		c-0.004,0.044-0.003,0.089-0.004,0.134c0,0.043-0.001,0.088-0.001,0.133c-0.002,0.087-0.003,0.176-0.003,0.265
		c-0.001,0.089-0.001,0.178-0.001,0.267c0,38.699,0,77.397,0,116.095c0,0.045-0.001,0.089-0.001,0.133s-0.001,0.088-0.001,0.133
		c0,0.044,0,0.089-0.003,0.133c-0.001,0.044-0.002,0.089-0.006,0.133c0,0.044,0,0.088-0.007,0.133
		c-0.005,0.044-0.015,0.087-0.023,0.13c-0.01,0.043-0.018,0.087-0.036,0.127c-0.018,0.04-0.046,0.074-0.125,0.197
		c-7.068,0-14.195,0-21.469,0c0.21-0.176,0.329-0.334,0.486-0.397c8.608-3.483,13.497-10.047,15.662-18.872
		c0.893-3.64,1.207-7.344,1.225-11.083c0.023-4.761-0.335-9.475-1.426-14.128c-1.76-7.5-5.834-13.479-11.976-18.007
		c-3.208-2.367-6.649-4.415-9.982-6.613c-4.333-2.859-8.672-5.706-12.978-8.602c-1.027-0.689-1.936-1.557-2.897-2.342
		c-2.043-1.668-3.287-3.828-3.805-6.391c-0.561-2.783-0.573-5.557,0.442-8.261c1.116-2.965,3.251-4.653,6.386-5.146
		c1.646-0.259,3.268-0.259,4.896,0.057c2.481,0.481,4.289,1.81,5.3,4.172c0.85,1.981,1.247,4.068,1.443,6.195
		c0.146,1.589,0.194,3.188,0.293,4.779c0.013,0.211,0.068,0.421,0.118,0.71c7.89,0,15.723,0,23.629,0
		c0.06-0.184,0.183-0.383,0.183-0.583c0-7.268-0.603-14.456-3.14-21.343c-2.423-6.576-6.659-11.554-13.099-14.527
		c-0.16-0.073-0.313-0.161-0.463-0.25c-0.032-0.02-0.041-0.077-0.109-0.221c0.253-0.05,0.479-0.099,0.707-0.138
		c0.086-0.014,0.178-0.002,0.267-0.002c15.13-0.042,30.262-0.083,45.392-0.125c0.395-0.001,0.789,0,1.301,0
		c4.303,18.566,8.588,37.067,12.874,55.567c0.088,0.012,0.175,0.022,0.262,0.034c0.127-0.297,0.305-0.578,0.374-0.886
		c2.434-10.815,4.853-21.633,7.281-32.448c1.604-7.138,3.223-14.273,4.84-21.408c0.057-0.255,0.172-0.496,0.278-0.796
		c29.335,0,58.654,0,87.96,0c0.264,1.021,0.36,21.123,0.105,23.446c-0.479,0.025-0.989,0.073-1.499,0.073
		c-5.99,0.006-11.982,0.003-17.974,0.007c-0.519,0-1.038,0.049-1.711,0.082C530.491,129.393,530.491,161.807,530.491,194.326z"/>
	<path fill-rule="evenodd" clip-rule="evenodd" d="M361.761,156.62c-7.949,0-15.741,0-23.563,0c-0.066,0.239-0.15,0.403-0.149,0.566
		c0.063,7.31,0.698,14.533,3.297,21.454c2.102,5.601,5.416,10.259,10.583,13.442c1.016,0.626,2.11,1.128,3.168,1.687
		c0.254,0.135,0.51,0.267,0.717,0.555c-14.798,0-29.598,0-44.617,0c0.348-0.223,0.525-0.38,0.735-0.465
		c8.641-3.514,13.699-10.098,16.156-18.89c1.021-3.652,1.471-7.398,1.479-11.181c0.036-12.868,0.021-25.737,0.023-38.607
		c0.003-6.522-0.003-13.046,0.004-19.569c0.004-4.95-0.45-9.834-2.006-14.567c-2.603-7.921-7.497-13.796-15.276-17.092
		c-0.204-0.086-0.402-0.184-0.602-0.285c-0.03-0.017-0.042-0.073-0.063-0.113c0.006-0.042,0.002-0.089,0.021-0.124
		c0.016-0.032,0.058-0.073,0.088-0.073c14.863-0.014,29.729-0.026,44.593-0.033c0.114,0,0.229,0.071,0.608,0.199
		c-0.816,0.393-1.431,0.687-2.045,0.984c-5.015,2.426-8.949,6.016-11.729,10.863c-1.833,3.194-3.006,6.633-3.609,10.24
		c-1.157,6.917-0.866,13.799,0.974,20.574c1.902,7.013,5.748,12.764,11.695,16.972c3.326,2.356,6.813,4.491,10.269,6.659
		c3.57,2.239,7.235,4.332,10.771,6.622c1.736,1.125,3.37,2.456,4.888,3.87c2.132,1.987,3.404,4.506,3.938,7.393
		c0.563,3.047,0.656,6.085-0.104,9.108c-0.925,3.682-3.368,5.82-7.141,6.396c-2.007,0.308-3.973,0.245-5.928-0.293
		c-2.384-0.653-4.036-2.146-5.058-4.372c-0.898-1.954-1.393-4.023-1.643-6.146c-0.179-1.54-0.242-3.092-0.361-4.638
		C361.85,157.409,361.807,157.066,361.761,156.62z"/>
	<path fill-rule="evenodd" clip-rule="evenodd" d="M221.087,73.401c18.301,0,36.602,0,54.902,0c0.016,0.058,0.031,0.116,0.047,0.173
		c-0.293,0.157-0.575,0.334-0.877,0.464c-7.778,3.335-12.586,9.286-15.16,17.203c-1.289,3.958-1.752,8.049-1.92,12.185
		c-0.033,0.798-0.032,1.598-0.032,2.396c-0.002,18.684-0.004,37.367,0,56.052c0.001,4.812,0.411,9.577,1.861,14.196
		c1.918,6.103,5.208,11.266,10.59,14.888c1.536,1.034,3.26,1.787,4.902,2.662c0.371,0.196,0.761,0.361,1.088,0.703
		c-18.688,0-37.374,0-56.107,0c2.415-0.594,4.8-1.078,7.121-1.773c4.807-1.443,9.035-3.879,12.399-7.678
		c3.43-3.875,5.577-8.399,6.767-13.405c0.731-3.078,1.143-6.205,1.147-9.359c0.031-18.861,0.057-37.724-0.009-56.585
		c-0.019-5.455-0.989-10.777-3.296-15.778c-3.436-7.451-9.144-12.303-16.975-14.66c-1.694-0.51-3.441-0.849-5.164-1.269
		c-0.429-0.104-0.857-0.214-1.285-0.321C221.086,73.464,221.087,73.432,221.087,73.401z"/>
	<path fill-rule="evenodd" clip-rule="evenodd" d="M282.939,133.778c0-8.475-0.032-16.952,0.025-25.427
		c0.012-1.941,0.235-3.896,0.536-5.815c0.176-1.12,0.63-2.214,1.081-3.269c1.202-2.822,3.446-4.282,6.419-4.765
		c2.311-0.375,4.594-0.321,6.861,0.272c2.276,0.593,3.94,1.937,5.018,4.038c1.482,2.887,1.854,6,1.86,9.173
		c0.021,9.985,0.008,19.97,0.008,29.955c0,7.19,0.042,14.378-0.026,21.567c-0.02,1.939-0.298,3.887-0.598,5.81
		c-0.155,0.992-0.568,1.954-0.953,2.895c-1.07,2.62-3.041,4.209-5.79,4.806c-2.554,0.554-5.104,0.536-7.641-0.151
		c-2.382-0.645-4.042-2.11-5.109-4.316c-1.127-2.326-1.544-4.804-1.64-7.348c-0.063-1.641-0.047-3.283-0.049-4.926
		C282.937,148.777,282.939,141.278,282.939,133.778z"/>
	<path fill-rule="evenodd" clip-rule="evenodd" d="M202.153,96.252c0.186-0.079,0.266-0.144,0.345-0.142
		c3.854,0.056,7.716-0.025,11.559,0.219c3.913,0.248,6.629,2.369,7.874,6.129c0.511,1.544,0.808,3.171,1.072,4.781
		c0.165,0.998,0.112,2.035,0.112,3.055c0.006,15.701,0.015,31.4-0.013,47.1c-0.002,1.676-0.147,3.367-0.394,5.026
		c-0.167,1.126-0.562,2.234-0.973,3.304c-1.285,3.348-3.829,5.118-7.313,5.592c-1.227,0.166-2.472,0.243-3.71,0.264
		c-2.394,0.041-4.79,0.016-7.186,0.011c-0.43-0.001-0.861-0.043-1.372-0.07C202.153,146.384,202.153,121.348,202.153,96.252z"/>
	<path fill-rule="evenodd" clip-rule="evenodd" d="M177.281,194.332c-2.89,0-5.717,0-8.639,0c0-40.316,0-80.575,0-120.927
		c2.873,0,5.731,0,8.582,0C177.486,74.392,177.554,192.621,177.281,194.332z"/>
</g>
<path fill-rule="evenodd" clip-rule="evenodd" fill="#FFFFFF" d="M85.916,166.546c-10.198,0-20.396,0-30.595,0
	c-0.354,0-0.71,0.02-1.064-0.007c-0.827-0.064-1.151-0.313-1.182-1.132c-0.055-1.461-0.051-2.926-0.005-4.388
	c0.027-0.829,0.424-1.178,1.247-1.262c0.351-0.037,0.709-0.015,1.064-0.015c20.396,0,40.793,0,61.19,0
	c0.31,0,0.623-0.016,0.931,0.011c0.919,0.079,1.291,0.418,1.313,1.324c0.035,1.419,0.037,2.84-0.003,4.256
	c-0.024,0.885-0.334,1.147-1.237,1.208c-0.309,0.019-0.62,0.005-0.931,0.005C106.4,166.546,96.158,166.546,85.916,166.546z"/>
<path fill-rule="evenodd" clip-rule="evenodd" fill="#FFFFFF" d="M85.96,179.065c-8.252,0-16.504,0-24.756,0
	c-0.355,0-0.71,0.012-1.065-0.004c-1.142-0.048-1.495-0.378-1.544-1.532c-0.037-0.885-0.037-1.774-0.001-2.661
	c0.049-1.202,0.409-1.519,1.66-1.554c0.221-0.006,0.443-0.002,0.666-0.002c16.681,0,33.363,0,50.044,0.001
	c2.204,0,2.336,0.133,2.344,2.333c0.002,0.578,0.013,1.155-0.006,1.73c-0.044,1.35-0.342,1.648-1.652,1.686
	c-0.355,0.009-0.71,0.002-1.065,0.002C102.376,179.065,94.169,179.065,85.96,179.065z"/>
<path fill-rule="evenodd" clip-rule="evenodd" fill="#032FBF" d="M68.447,95.791c2.397,0,4.729,0,7.039,0
	c0.313,1.171,0.318,48.909,0.009,50.093c-2.317,0-4.656,0-6.976,0C68.18,144.889,68.103,97.375,68.447,95.791z"/>
<path fill-rule="evenodd" clip-rule="evenodd" fill="#032FBF" d="M82.585,117.799c2.4,0,4.73,0,7.156,0c0,9.35,0,18.642,0,28.097
	c-2.375,0.109-4.698,0.072-6.998,0.019C82.4,144.906,82.265,120.324,82.585,117.799z"/>
<path fill-rule="evenodd" clip-rule="evenodd" fill="#032FBF" d="M103.969,130.925c0,5.014,0,9.913,0,14.94
	c-2.418,0.152-4.775,0.13-7.212,0.015c0-5.012,0-9.91,0-14.934C99.168,130.792,101.531,130.83,103.969,130.925z"/>
</svg>
